# xmcd
#
# Track frame offsets: 
#        150
#        22919
#        49077
#        64332
#        84574
#        100791
#        116364
#        140467
#        160156
#        185844
#        210064
#        226768
#
# Disc length: 3263 seconds
#
# Revision: 0
# Processed by: cddbd v1.5.2PL0 Copyright (c) Steve Scherf et al.
# Submitted via: ExactAudioCopy v1.0b3
#
DISCID=920cbd0c
DTITLE=サンボマスター - ロックンロール イズ ノット デッド
DYEAR=2012
DGENRE=Blues
TTITLE0=ロックンロール イズ ノット デッド
TTITLE1=あなたのことしか考えられない
TTITLE2=恋する季節
TTITLE3=ビューティフル
TTITLE4=あなたに心奪われたから
TTITLE5=希望は捨てない
TTITLE6=静かに光りつづけるもの
TTITLE7=泣いてばかりじゃ見つからないぜ ～ハードコアスイートソウルの誕生～
TTITLE8=青春のかけら
TTITLE9=君だけ信じてみたかった
TTITLE10=衝動バケモノ
TTITLE11=うまくいくんだよきっと
EXTD=
EXTT0=
EXTT1=
EXTT2=
EXTT3=
EXTT4=
EXTT5=
EXTT6=
EXTT7=
EXTT8=
EXTT9=
EXTT10=
EXTT11=
PLAYORDER=
